# Blender 4.2.2 LTS
# www.blender.org
mtllib table2.mtl
o Chair_1_Куб.002
v -0.999500 1.799271 1.019695
v -0.999500 1.605857 1.019695
v -0.999500 1.799271 -0.980305
v -0.999500 1.605857 -0.980305
v 1.000500 1.799271 1.019695
v 1.000500 1.605857 1.019695
v 1.000500 1.799271 -0.980305
v 1.000500 1.605857 -0.980305
vn -1.0000 -0.0000 -0.0000
vn -0.0000 -0.0000 -1.0000
vn 1.0000 -0.0000 -0.0000
vn -0.0000 -0.0000 1.0000
vn -0.0000 1.0000 -0.0000
vn -0.0000 -1.0000 -0.0000
vt 0.325602 0.251563
vt 0.278172 0.251563
vt 0.278172 0.492382
vt 0.373647 0.263192
vt 0.328258 0.263192
vt 0.328258 0.498053
vt 0.373630 0.007713
vt 0.326200 0.007713
vt 0.326199 0.248532
vt 0.325602 0.007713
vt 0.278172 0.007713
vt 0.278172 0.248532
vt 0.256957 0.247807
vt 0.256958 0.008949
vt 0.018100 0.008949
vt 0.256356 0.496942
vt 0.256357 0.258084
vt 0.017499 0.258084
vt 0.325602 0.492382
vt 0.373647 0.498054
vt 0.373630 0.248532
vt 0.325602 0.248532
vt 0.018100 0.247807
vt 0.017499 0.496942
s 0
usemtl Материал.001
f 2/1/1 1/2/1 3/3/1
f 4/4/2 3/5/2 7/6/2
f 8/7/3 7/8/3 5/9/3
f 6/10/4 5/11/4 1/12/4
f 7/13/5 3/14/5 1/15/5
f 4/16/6 8/17/6 6/18/6
f 2/1/1 3/3/1 4/19/1
f 4/4/2 7/6/2 8/20/2
f 8/7/3 5/9/3 6/21/3
f 6/10/4 1/12/4 2/22/4
f 7/13/5 1/15/5 5/23/5
f 4/16/6 6/18/6 2/24/6
