# Blender 4.2.2 LTS
# www.blender.org
mtllib tablelegs.mtl
o Chair_1_Куб.002
v -0.690905 0.010296 -0.876746
v -0.393320 1.611659 -0.679427
v -0.690905 0.010296 -0.678042
v -0.393320 1.611659 -0.480723
v -0.893193 0.010296 -0.876746
v -0.595609 1.611659 -0.679427
v -0.893193 0.010296 -0.678042
v -0.595609 1.611659 -0.480723
v 0.691905 0.010296 -0.876746
v 0.394320 1.611659 -0.679427
v 0.691905 0.010296 -0.678042
v 0.394320 1.611659 -0.480723
v 0.894194 0.010296 -0.876746
v 0.596609 1.611659 -0.679427
v 0.894194 0.010296 -0.678042
v 0.596609 1.611659 -0.480723
v -0.690905 0.010296 0.916137
v -0.393320 1.611659 0.718817
v -0.690905 0.010296 0.717433
v -0.393320 1.611659 0.520113
v -0.893193 0.010296 0.916137
v -0.595609 1.611659 0.718817
v -0.893193 0.010296 0.717433
v -0.595609 1.611659 0.520113
v 0.691905 0.010296 0.916137
v 0.394320 1.611659 0.718817
v 0.691905 0.010296 0.717433
v 0.394320 1.611659 0.520113
v 0.894194 0.010296 0.916137
v 0.596609 1.611659 0.718817
v 0.894194 0.010296 0.717433
v 0.596609 1.611659 0.520113
vn 0.9832 -0.1827 -0.0000
vn -0.0000 -0.1223 0.9925
vn -0.9832 0.1827 -0.0000
vn -0.0000 0.1223 -0.9925
vn -0.0000 -1.0000 -0.0000
vn -0.9832 -0.1827 -0.0000
vn 0.9832 0.1827 -0.0000
vn -0.0000 -0.1223 -0.9925
vn -0.0000 0.1223 0.9925
vt 0.068045 0.516567
vt 0.014247 0.986243
vt 0.068045 0.986310
vt 0.984996 0.986285
vt 0.930232 0.516603
vt 0.930232 0.986388
vt 0.128660 0.986243
vt 0.074862 0.516567
vt 0.074862 0.986310
vt 0.499168 0.986285
vt 0.553932 0.516603
vt 0.499168 0.516500
vt 0.523291 0.239828
vt 0.392900 0.129515
vt 0.523291 0.129515
vt 0.249891 0.986243
vt 0.196092 0.516567
vt 0.196092 0.986310
vt 0.615512 0.516603
vt 0.560748 0.986285
vt 0.615512 0.986388
vt 0.377937 0.986243
vt 0.431736 0.516567
vt 0.377937 0.516500
vt 0.861835 0.986285
vt 0.807071 0.516603
vt 0.807071 0.986388
vt 0.392900 0.363869
vt 0.523291 0.253556
vt 0.523291 0.363869
vt 0.310506 0.986243
vt 0.256707 0.516567
vt 0.256707 0.986310
vt 0.677093 0.516603
vt 0.622329 0.986285
vt 0.677093 0.986388
vt 0.438552 0.986243
vt 0.492351 0.516567
vt 0.438552 0.516500
vt 0.800254 0.986285
vt 0.745490 0.516603
vt 0.745490 0.986388
vt 0.523291 0.377597
vt 0.392900 0.487910
vt 0.392900 0.377597
vt 0.189276 0.516567
vt 0.135477 0.986243
vt 0.189276 0.986310
vt 0.923416 0.986285
vt 0.868651 0.516603
vt 0.868651 0.986388
vt 0.371121 0.986243
vt 0.317322 0.516567
vt 0.317322 0.986310
vt 0.683909 0.986285
vt 0.738673 0.516603
vt 0.683909 0.516500
vt 0.392900 0.005475
vt 0.523291 0.115787
vt 0.392900 0.115787
vt 0.014247 0.516500
vt 0.984996 0.516500
vt 0.128660 0.516500
vt 0.553932 0.986388
vt 0.392900 0.239828
vt 0.249891 0.516500
vt 0.560748 0.516500
vt 0.431736 0.986310
vt 0.861835 0.516500
vt 0.392900 0.253556
vt 0.310506 0.516500
vt 0.622329 0.516500
vt 0.492351 0.986310
vt 0.800254 0.516500
vt 0.523291 0.487910
vt 0.135477 0.516500
vt 0.923415 0.516500
vt 0.371121 0.516500
vt 0.738673 0.986388
vt 0.523291 0.005475
s 0
usemtl Материал.001
f 2/1/1 3/2/1 1/3/1
f 3/4/2 8/5/2 7/6/2
f 7/7/3 6/8/3 5/9/3
f 6/10/4 1/11/4 5/12/4
f 7/13/5 1/14/5 3/15/5
f 11/16/6 10/17/6 9/18/6
f 11/19/2 16/20/2 12/21/2
f 15/22/7 14/23/7 16/24/7
f 9/25/4 14/26/4 13/27/4
f 9/28/5 15/29/5 11/30/5
f 19/31/1 18/32/1 17/33/1
f 19/34/8 24/35/8 20/36/8
f 23/37/3 22/38/3 24/39/3
f 17/40/9 22/41/9 21/42/9
f 17/43/5 23/44/5 19/45/5
f 26/46/6 27/47/6 25/48/6
f 27/49/8 32/50/8 31/51/8
f 31/52/7 30/53/7 29/54/7
f 30/55/9 25/56/9 29/57/9
f 31/58/5 25/59/5 27/60/5
f 2/1/1 4/61/1 3/2/1
f 3/4/2 4/62/2 8/5/2
f 7/7/3 8/63/3 6/8/3
f 6/10/4 2/64/4 1/11/4
f 7/13/5 5/65/5 1/14/5
f 11/16/6 12/66/6 10/17/6
f 11/19/2 15/67/2 16/20/2
f 15/22/7 13/68/7 14/23/7
f 9/25/4 10/69/4 14/26/4
f 9/28/5 13/70/5 15/29/5
f 19/31/1 20/71/1 18/32/1
f 19/34/8 23/72/8 24/35/8
f 23/37/3 21/73/3 22/38/3
f 17/40/9 18/74/9 22/41/9
f 17/43/5 21/75/5 23/44/5
f 26/46/6 28/76/6 27/47/6
f 27/49/8 28/77/8 32/50/8
f 31/52/7 32/78/7 30/53/7
f 30/55/9 26/79/9 25/56/9
f 31/58/5 29/80/5 25/59/5
